<svg xmlns="http://www.w3.org/2000/svg" width="32" height="32" viewBox="0 0 32 32">
    <g fill="none" fill-rule="evenodd">
        <circle cx="16" cy="16" r="16" fill="#0C3C4A"/>
        <path fill="#FFF" d="M22.258 18.034a8.813 8.813 0 0 0-3.427-2.132l-.272-.092.23-.17a4.7 4.7 0 0 0 1.915-3.786A4.71 4.71 0 0 0 16 7.15a4.71 4.71 0 0 0-4.704 4.704 4.7 4.7 0 0 0 1.914 3.785l.231.171-.272.092a8.813 8.813 0 0 0-3.427 2.132A8.791 8.791 0 0 0 7.15 24.29c0 .309.25.559.559.559H24.29c.309 0 .559-.25.559-.559 0-2.364-.92-4.586-2.592-6.257zm-9.662-6.284c0-1.875 1.525-3.4 3.4-3.4s3.4 1.525 3.4 3.4-1.525 3.4-3.4 3.4a3.404 3.404 0 0 1-3.4-3.4zM8.54 23.34c.345-3.705 3.685-6.643 7.512-6.643 3.814 0 7.1 2.926 7.446 6.644l-.149.163H8.69l-.149-.163z"/>
    </g>
</svg>
